<?xml version="1.0" encoding="utf-8"?>
<!-- Generator: Adobe Illustrator 24.1.0, SVG Export Plug-In . SVG Version: 6.00 Build 0)  -->
<svg version="1.1" id="Layer_1" xmlns="http://www.w3.org/2000/svg" xmlns:xlink="http://www.w3.org/1999/xlink" x="0px" y="0px"
	 viewBox="0 0 1068 310.4" style="enable-background:new 0 0 1068 310.4;" xml:space="preserve">
<style type="text/css">
	.st0{fill:none;stroke:#114369;stroke-width:2;stroke-miterlimit:10;}
</style>
<g>
	<path class="st0" d="M95.2,10.8c4.4,0,5.5,1.5,5.5,5.9v74.4c15.8-1.5,29-2.2,41.8-2.2c64.2,0,84.3,25.7,84.3,107
		c0,83.6-20.5,106.7-104.1,106.7c-23.1,0-57.2-3.3-85-8.1c-5.9-1.1-9.5-4.8-9.5-12.1V16.7c0-4.4,1.1-5.9,5.5-5.9
		C33.7,10.8,95.2,10.8,95.2,10.8z M100.7,151.6v86.5c7.7,1.8,20.2,2.2,23.8,2.2c29,0,29.7-13.9,29.7-44.4c0-37.8-4.4-44.4-33.4-44.4
		h-20.1V151.6z"/>
	<path class="st0" d="M454.7,195.9c0,85.4-20.2,106.7-101.5,106.7c-81,0-101.2-21.3-101.2-106.7c0-85.8,20.2-107,101.2-107
		C434.6,88.9,454.7,110.2,454.7,195.9z M325,195.9c0,35.6,5.5,44.4,28.2,44.4c23.1,0,28.6-8.8,28.6-44.4c0-35.9-5.5-44.7-28.6-44.7
		C330.5,151.2,325,160,325,195.9z"/>
	<path class="st0" d="M677.5,90.7c5.1,0,6.2,3.3,2.9,7L617,191.9l68.5,101.9c2.6,3.7,1.5,7-3.3,7h-74.4c-2.6,0-4.8-1.5-6.2-3.7
		L571.2,248l-30.4,49.1c-1.5,2.2-3.3,3.7-6.2,3.7h-74.1c-4.8,0-5.9-3.3-3.3-7l68.6-101.5L462,97.7c-3.3-3.7-1.8-7,2.9-7h74.4
		c2.9,0,5.1,1.5,7,3.7l25.3,41.4l24.9-41.4c1.8-2.2,4-3.7,7-3.7C603.5,90.7,677.5,90.7,677.5,90.7z"/>
	<path class="st0" d="M959.2,10.8c5.5,0,7.3,2.9,4,8.1l-88,131.2l96,142.6c4,5.9,1.1,8.1-4,8.1h-74c-5.5,0-7.3-1.8-9.9-5.9
		l-52.8-87.2l-53.2,87.2c-2.9,4-4.4,5.9-9.9,5.9h-74c-5.1,0-8.1-2.2-4-8.1l96.4-142.6l-88-131.2c-3.3-5.1-1.5-8.1,4-8.1h74
		c5.9,0,7.7,2.2,9.9,5.9l44.7,75.9l44.7-75.9c2.2-3.7,4-5.9,9.9-5.9C885,10.8,959.2,10.8,959.2,10.8z"/>
</g>
</svg>
