<?xml version="1.0" encoding="utf-8"?>
<!-- Generator: Adobe Illustrator 24.1.0, SVG Export Plug-In . SVG Version: 6.00 Build 0)  -->
<svg version="1.1" id="Layer_1" xmlns="http://www.w3.org/2000/svg" xmlns:xlink="http://www.w3.org/1999/xlink" x="0px" y="0px"
	 viewBox="0 0 1000 1000" style="enable-background:new 0 0 1000 1000;" xml:space="preserve">
<style type="text/css">
	.st0{opacity:0.2;}
	.st1{fill:none;stroke:#FFFFFF;stroke-width:20;stroke-miterlimit:10;}
	.st2{opacity:0.4;}
</style>
<g class="st0">
	<polygon class="st1" points="464.3,594.4 181.4,372.9 322.7,641.9 	"/>
	<polygon class="st1" points="347.8,689.8 489.4,959.2 489.4,642.3 	"/>
	<polygon class="st1" points="129.7,389.9 129.7,706.8 271.4,659.2 	"/>
	<polygon class="st1" points="155.2,754.7 437.8,976.1 296.5,707.1 	"/>
</g>
<g>
	<polygon class="st1" points="526.8,576.4 825.3,342 526.8,342 	"/>
	<polygon class="st1" points="526.8,54.7 526.8,288.7 825.3,288.7 	"/>
	<polygon class="st1" points="473.5,288.7 473.5,54.7 174.9,288.7 	"/>
	<polygon class="st1" points="473.5,576.4 473.5,342 174.9,342 	"/>
</g>
<g class="st2">
	<polygon class="st1" points="561.8,976.1 844.7,754.7 703.1,707.1 	"/>
	<polygon class="st1" points="510.5,642.3 510.5,959.2 651.8,689.8 	"/>
	<polygon class="st1" points="818.6,372.9 535.6,594.4 676.9,641.9 	"/>
	<polygon class="st1" points="728.5,659.2 869.8,706.8 869.8,389.9 	"/>
</g>
<path class="st1" d="M500.3,22.7L500.3,22.7L500.3,22.7z"/>
<path class="st1" d="M190.2,355.9"/>
</svg>
