<?xml version="1.0" encoding="utf-8"?>
<!-- Generator: Adobe Illustrator 24.1.0, SVG Export Plug-In . SVG Version: 6.00 Build 0)  -->
<svg version="1.1" id="Layer_1" xmlns="http://www.w3.org/2000/svg" xmlns:xlink="http://www.w3.org/1999/xlink" x="0px" y="0px"
	 viewBox="0 0 1000 1000" style="enable-background:new 0 0 1000 1000;" xml:space="preserve">
<style type="text/css">
	.st0{fill:#FAA31F;}
	.st1{fill:#FFFFFF;}
	.st2{fill:#F36C4A;}
	.st3{opacity:0.6;}
	.st4{fill:#A31D2F;}
	.st5{opacity:0.8;}
</style>
<path class="st0" d="M72.6,297.8L72.6,297.8L72.6,297.8z"/>
<g>
	<g>
		<path class="st1" d="M537.7,602.4L537.7,602.4L537.7,602.4z"/>
		<polygon class="st1" points="510.4,581.1 204.5,341.4 357.5,632.5 		"/>
		<polygon class="st1" points="384.7,684.3 537.7,975.4 537.7,633 		"/>
	</g>
	<g>
		<path class="st1" d="M149,733L149,733L149,733z"/>
		<polygon class="st1" points="302,651.1 149,360 149,702.5 		"/>
		<polygon class="st1" points="176.3,754.4 482.1,994 329.2,702.9 		"/>
	</g>
</g>
<path class="st2" d="M538.4,602.4L538.4,602.4L538.4,602.4z"/>
<g class="st3">
	<g>
		<polygon class="st1" points="593.9,994 899.8,754.4 746.8,702.9 		"/>
		<polygon class="st1" points="691.3,684.3 538.4,633 538.4,975.4 		"/>
	</g>
	<g>
		<polygon class="st1" points="871.5,341.4 565.6,581.1 718.6,632.5 		"/>
		<polygon class="st1" points="774.1,651.1 927,702.5 927,360 		"/>
	</g>
</g>
<path class="st4" d="M538.4-6.7L538.4-6.7L538.4-6.7z"/>
<g class="st5">
	<path class="st1" d="M927,297.8L927,297.8L927,297.8z"/>
	<polygon class="st1" points="567.3,326.7 567.3,579.8 890.1,326.7 	"/>
	<polygon class="st1" points="890.1,268.9 567.3,16 567.3,268.9 	"/>
</g>
<g class="st5">
	<polygon class="st1" points="509.5,268.9 509.5,16 186.6,268.9 	"/>
	<polygon class="st1" points="186.6,326.7 509.5,579.8 509.5,326.7 	"/>
	<path class="st1" d="M149.7,297.8L149.7,297.8L149.7,297.8z"/>
</g>
</svg>
