<?xml version="1.0" encoding="utf-8"?>
<!-- Generator: Adobe Illustrator 24.1.0, SVG Export Plug-In . SVG Version: 6.00 Build 0)  -->
<svg version="1.1" xmlns="http://www.w3.org/2000/svg" xmlns:xlink="http://www.w3.org/1999/xlink" x="0px" y="0px"
	 viewBox="0 0 1000 1000" style="enable-background:new 0 0 1000 1000;" xml:space="preserve">
<style type="text/css">
	.st0{fill:#FAA31F;}
	.st1{fill:#3691C1;}
	.st2{fill:#F36C4A;}
	.st3{fill:#0F5885;}
	.st4{fill:#A31D2F;}
	.st5{fill:#6AA2C9;}
	.st6{fill:none;}
	.st7{fill:url(#SVGID_1_);}
	.st8{fill:#6BA5CD;}
	.st9{fill:#6D99B8;}
	.st10{fill:#76A6C8;}
	.st11{fill:#7FB0D4;}
	.st12{fill:#528EB7;}
	.st13{fill:#4B88B4;}
	.st14{fill:#3673A1;}
	.st15{fill:#266FA0;}
	.st16{fill:#5181AA;}
	.st17{fill:#136D9F;}
	.st18{fill:#3E88B6;}
	.st19{fill:#569DC9;}
	.st20{fill:#4296C6;}
	.st21{fill:#4897C6;}
	.st22{fill:#2C88B9;}
	.st23{fill:#1676A8;}
	.st24{fill:#126C9F;}
	.st25{fill:#11679B;}
	.st26{fill:#2284B5;}
	.st27{fill:#4396C6;}
	.st28{fill:#1976A8;}
	.st29{fill:#0F5F92;}
	.st30{fill:#005485;}
	.st31{fill:#1C699A;}
	.st32{fill:#4286B3;}
	.st33{fill:#497AA5;}
	.st34{fill:#5689B0;}
	.st35{fill:#629BC3;}
	.st36{fill:#67A2CC;}
	.st37{fill:#84B0D5;}
	.st38{fill:#7EAED3;}
	.st39{fill:#6A9CC1;}
	.st40{fill:#7791B0;}
	.st41{fill:#D9E0EE;}
	.st42{fill:#E8E9F2;}
	.st43{fill:#E0E3F0;}
	.st44{fill:#D4DAEB;}
	.st45{fill:#CBD3E7;}
	.st46{fill:#C6D1E5;}
	.st47{fill:#B9CAE2;}
	.st48{fill:#B5C6E0;}
	.st49{fill:#BDCAE3;}
	.st50{fill:#AFC7E0;}
	.st51{fill:#B9CBE1;}
	.st52{fill:#A7BEDD;}
	.st53{fill:#A8C1DD;}
	.st54{fill:#8EB5D8;}
	.st55{fill:#9BBBDA;}
	.st56{fill:#A0BEDB;}
	.st57{fill:#ABC4DE;}
	.st58{fill:#B5CAE1;}
	.st59{fill:#BDCDE4;}
	.st60{fill:#98B9D9;}
	.st61{fill:#9CBCDB;}
	.st62{fill:#A7C2DE;}
	.st63{fill:#79AAD0;}
	.st64{fill:#5099C6;}
	.st65{fill:#4E9BC8;}
	.st66{fill:#6DA6CE;}
	.st67{fill:#75A8D0;}
	.st68{fill:#A2C0DC;}
	.st69{fill:#93BCDB;}
	.st70{fill:#8CB7D9;}
	.st71{fill:#9EBCDC;}
	.st72{fill:#90B4D6;}
	.st73{fill:#A3BEDC;}
	.st74{fill:#9AB9DA;}
	.st75{fill:#91B5D7;}
	.st76{fill:#79AAD1;}
	.st77{fill:#63A1CB;}
	.st78{fill:#5E9FCA;}
	.st79{fill:#89B6D8;}
	.st80{fill:#60A1CC;}
	.st81{fill:#3189BB;}
	.st82{fill:#3B92C3;}
	.st83{fill:#1A79AB;}
	.st84{fill:#2184B6;}
	.st85{fill:#136698;}
	.st86{fill:#297DAC;}
	.st87{fill:#458AB7;}
	.st88{fill:#4D94C1;}
	.st89{fill:#3A8AB9;}
	.st90{fill:#589ECA;}
	.st91{fill:#62A1CC;}
	.st92{fill:#1D7CAE;}
	.st93{fill:#3385B5;}
	.st94{fill:#8FB3D8;}
	.st95{fill:#76A9CF;}
	.st96{fill:#84B0D4;}
	.st97{fill:#347FAE;}
	.st98{fill:#2288BC;}
	.st99{fill:#4A8AB4;}
	.st100{fill:#1B70A2;}
	.st101{fill:#4C98C7;}
	.st102{fill:#2979A9;}
	.st103{fill:#1A72A5;}
	.st104{fill:#1C7BAD;}
	.st105{fill:#2083B6;}
	.st106{fill:#5496C1;}
	.st107{fill:#68A3CC;}
	.st108{fill:#5091BD;}
	.st109{fill:#5C8FB5;}
	.st110{fill:#4480AA;}
	.st111{fill:#286E9E;}
	.st112{fill:#1873A4;}
	.st113{fill:#14699D;}
	.st114{fill:#277FB0;}
	.st115{fill:#4395C4;}
	.st116{fill:#2F8FC0;}
	.st117{fill:#347DAA;}
	.st118{fill:#4482AE;}
	.st119{fill:#6F86A7;}
	.st120{fill:#577EA6;}
	.st121{fill:#5795BF;}
	.st122{fill:#73A5C8;}
	.st123{fill:#6793B5;}
	.st124{fill:#5580A8;}
	.st125{fill:#2E83B4;}
	.st126{fill:#4D90BD;}
	.st127{fill:#548AB4;}
	.st128{fill:#7AABD0;}
	.st129{fill:#88B9D8;}
	.st130{fill:#6894B6;}
	.st131{fill:#6183A9;}
	.st132{fill:#3980AD;}
	.st133{fill:#236A9B;}
	.st134{fill:#136598;}
	.st135{fill:#074C7D;}
	.st136{fill:#176496;}
	.st137{fill:#588FB8;}
	.st138{fill:#80B2D6;}
	.st139{fill:#4891BE;}
	.st140{fill:#388BBB;}
	.st141{fill:#055687;}
	.st142{fill:#5C7EA5;}
	.st143{fill:#6F9FC1;}
	.st144{fill:#6D9DC2;}
	.st145{fill:#6C8BAD;}
	.st146{fill:#2774A4;}
	.st147{fill:#94BBDA;}
	.st148{fill:#5597C2;}
	.st149{fill:#6C9FC4;}
	.st150{fill:#75A5C3;}
	.st151{fill:#76AAD0;}
	.st152{fill:#8BB9D8;}
	.st153{fill:#82B7D9;}
	.st154{fill:#5C94BB;}
	.st155{fill:#4B84AF;}
	.st156{fill:#4275A1;}
	.st157{fill:#629CC4;}
	.st158{fill:#497DA8;}
	.st159{fill:#2077A9;}
	.st160{fill:none;stroke:#231F20;stroke-linecap:round;stroke-linejoin:round;stroke-miterlimit:10;}
	.st161{fill:#055B8F;}
	.st162{fill:#174172;}
	.st163{fill:#174374;}
	.st164{fill:#044D7E;}
	.st165{fill:#03578A;}
	.st166{fill:#0B598C;}
	.st167{fill:#105E90;}
	.st168{fill:#1E6294;}
	.st169{fill:#166597;}
	.st170{fill:#43739F;}
	.st171{fill:#2F6D9A;}
	.st172{fill:#2174A4;}
	.st173{fill:#337CA9;}
	.st174{fill:#2A83B4;}
	.st175{fill:#5C90B8;}
	.st176{fill:#486B96;}
	.st177{fill:#6280A3;}
	.st178{fill:#608CB2;}
	.st179{fill:#658EB0;}
	.st180{fill:#6D9EBF;}
	.st181{fill:#738FAF;}
	.st182{fill:#7FABC8;}
	.st183{fill:#7C98B4;}
	.st184{fill:#779EBB;}
	.st185{fill:#7CA4C0;}
	.st186{fill:#183E6C;}
	.st187{fill:#1A3E6E;}
	.st188{fill:#1B3663;}
	.st189{fill:#1A3B69;}
	.st190{fill:#015182;}
	.st191{fill:#164373;}
	.st192{fill:#1C3361;}
	.st193{fill:#146093;}
	.st194{fill:#09578B;}
	.st195{fill:#206293;}
	.st196{fill:#004F81;}
	.st197{fill:#165D8F;}
	.st198{fill:#035385;}
	.st199{fill:#34719F;}
	.st200{fill:#306C99;}
	.st201{fill:#3E6F9C;}
	.st202{fill:#59789F;}
	.st203{fill:#6884A9;}
	.st204{fill:#7689A9;}
	.st205{fill:#6980A3;}
	.st206{fill:#6E85A8;}
	.st207{fill:#5B86AD;}
	.st208{fill:#6C8FB0;}
	.st209{fill:#6D9BBB;}
	.st210{fill:#7DAECE;}
	.st211{fill:#7A9DB9;}
	.st212{fill:#77A2BF;}
	.st213{fill:#7BA8C6;}
	.st214{fill:#81AAC6;}
	.st215{fill:#83B2D0;}
	.st216{fill:#8EBDDA;}
	.st217{fill:#89B9D6;}
	.st218{fill:#95C0DC;}
	.st219{fill:#9CC2DD;}
	.st220{fill:#6BA6CF;}
	.st221{fill:#9FC1DD;}
	.st222{fill:#92BFDB;}
	.st223{fill:#A5C6E0;}
	.st224{fill:#B6CDE4;}
	.st225{fill:#BCCFE5;}
	.st226{fill:#CED8EA;}
	.st227{fill:#D6DCEC;}
	.st228{fill:#D2D8EA;}
	.st229{fill:#F2F0F7;}
	.st230{fill:#F2EFF7;}
	.st231{fill:#E8E9F3;}
	.st232{fill:#DEE2F1;}
	.st233{fill:#D1D9EA;}
	.st234{fill:#D0D8EB;}
	.st235{fill:#C8D5E9;}
	.st236{fill:#BFD1E6;}
	.st237{fill:#AEC9E1;}
	.st238{fill:#A6C7E0;}
	.st239{fill:#AFCCE3;}
	.st240{fill:#3690C1;}
	.st241{fill:#4999C7;}
	.st242{fill:#136DA0;}
	.st243{fill:#396E9B;}
	.st244{fill:#6699BE;}
	.st245{fill:none;stroke:url(#SVGID_2_);stroke-width:16;stroke-linecap:round;stroke-miterlimit:10;}
	.st246{fill:none;stroke:url(#SVGID_3_);stroke-width:16;stroke-linecap:round;stroke-miterlimit:10;}
	.st247{fill:none;stroke:url(#SVGID_4_);stroke-width:16;stroke-linecap:round;stroke-miterlimit:10;}
	.st248{fill:none;stroke:url(#SVGID_5_);stroke-width:5;stroke-linecap:round;stroke-miterlimit:10;}
	.st249{opacity:0.2;}
	.st250{fill:url(#SVGID_6_);}
	.st251{fill:url(#SVGID_7_);}
	.st252{fill:url(#SVGID_8_);}
	.st253{fill:url(#SVGID_9_);}
	.st254{fill:url(#SVGID_10_);}
	.st255{fill:url(#SVGID_11_);}
	.st256{fill:url(#SVGID_12_);}
	.st257{fill:url(#SVGID_13_);}
</style>
<g id="Layer_1">
	<path class="st0" d="M72.6,297.8L72.6,297.8L72.6,297.8z"/>
	<g>
		<polygon class="st1" points="510.4,581.1 204.5,341.4 357.5,632.5 		"/>
		<polygon class="st1" points="384.7,684.3 537.7,975.4 537.7,633 		"/>
		<polygon class="st1" points="149,360 149,702.5 302,651.1 		"/>
		<polygon class="st1" points="176.3,754.4 482.1,994 329.2,702.9 		"/>
	</g>
	<path class="st2" d="M538.4,602.4L538.4,602.4L538.4,602.4z"/>
	<g>
		<polygon class="st3" points="593.9,994 899.8,754.4 746.8,702.9 		"/>
		<polygon class="st3" points="538.4,633 538.4,975.4 691.3,684.3 		"/>
		<polygon class="st3" points="871.5,341.4 565.6,581.1 718.6,632.5 		"/>
		<polygon class="st3" points="774.1,651.1 927,702.5 927,360 		"/>
	</g>
	<path class="st4" d="M538.4-6.7L538.4-6.7L538.4-6.7z"/>
	<g>
		<polygon class="st5" points="567.3,579.8 890.1,326.7 567.3,326.7 		"/>
		<polygon class="st5" points="567.3,16 567.3,268.9 890.1,268.9 		"/>
		<polygon class="st5" points="509.5,268.9 509.5,16 186.6,268.9 		"/>
		<polygon class="st5" points="509.5,579.8 509.5,326.7 186.6,326.7 		"/>
	</g>
	<g>
		<g>
			<path class="st6" d="M-1480.1-93.2c-148.3,0-268.4,120.2-268.4,268.4c0,62.4,21.3,119.8,57,165.3c3.5-30.6,22.8-110,126.4-128.7
				c1.8,26.9,85,48.5,85,48.5s83.2-21.5,85-48.5c103.6,18.7,122.8,98,126.4,128.7c35.7-45.6,57-103,57-165.3
				C-1211.8,27-1331.9-93.2-1480.1-93.2z M-1480.1,225.7c-57.7,0-106.8-67.8-106.8-167.4s106.8-101,106.8-101s106.8,1.4,106.8,101
				S-1422.5,225.7-1480.1,225.7z"/>
			<g>
				
					<linearGradient id="SVGID_1_" gradientUnits="userSpaceOnUse" x1="-2210.3223" y1="-35.1687" x2="-901.5223" y2="1273.6313" gradientTransform="matrix(1 0 0 1 0 -390)">
					<stop  offset="0" style="stop-color:#D9E0EE"/>
					<stop  offset="0.1878" style="stop-color:#BDCAE3"/>
					<stop  offset="0.4933" style="stop-color:#84B0D5"/>
					<stop  offset="0.6969" style="stop-color:#1676A8"/>
					<stop  offset="1" style="stop-color:#174172"/>
				</linearGradient>
				<rect x="-2393.6" y="-241.9" class="st7" width="1675.3" height="942.3"/>
				<polygon class="st8" points="-2022.5,252.5 -2022.5,355.5 -1895.3,365.8 				"/>
				<polygon class="st9" points="-2336.3,508.5 -2356.1,583.2 -2218.8,603.8 -2226.1,499.9 				"/>
				<polygon class="st10" points="-2153.2,377 -2226.1,499.9 -2263,337.9 				"/>
				<polygon class="st11" points="-2263,337.9 -2200.6,286.1 -2105.8,238.3 -2153.2,377 				"/>
				<polygon class="st12" points="-1867,451.8 -1895.3,562.6 -2001.9,469.8 				"/>
				<polygon class="st13" points="-1895.3,562.6 -1867,451.8 -1785.1,491.3 				"/>
				<polygon class="st14" points="-1644.7,575.8 -1649.6,499.9 -1571.4,586.6 				"/>
				<polygon class="st15" points="-1571.4,586.6 -1555.9,700.4 -1644.7,575.8 				"/>
				<polygon class="st16" points="-1895.3,562.6 -1912.5,677.7 -2016.5,569.5 				"/>
				<polygon class="st17" points="-1342.3,512.8 -1322.2,576.3 -1477.5,626.2 				"/>
				<polygon class="st18" points="-1690.8,377 -1649.6,499.9 -1785.1,491.3 				"/>
				<polygon class="st19" points="-1785.1,275.6 -1775.9,339.2 -1657.3,255 				"/>
				<polygon class="st20" points="-1657.3,255 -1564.5,365.8 -1524.4,261.9 				"/>
				<polygon class="st21" points="-1532.5,166.8 -1468.3,261.9 -1524.4,261.9 				"/>
				<polygon class="st22" points="-1564.5,365.8 -1468.3,349.5 -1477.5,461.2 				"/>
				<polygon class="st23" points="-1342.3,512.8 -1256.1,481.8 -1331.7,390.8 				"/>
				<polygon class="st24" points="-1256.1,481.8 -1122.9,506.7 -1136.7,390.8 				"/>
				<polygon class="st25" points="-1256.1,481.8 -1322.2,576.3 -1220.9,569.5 				"/>
				<polygon class="st26" points="-1244.9,349.5 -1198.5,285.1 -1322.2,275.6 				"/>
				<polygon class="st27" points="-1414.5,127 -1468.3,261.9 -1327.4,166.8 				"/>
				<polygon class="st28" points="-1086.8,275.6 -1027.6,238.7 -979.4,355.5 				"/>
				<polygon class="st29" points="-979.4,355.5 -979.4,491.3 -913.3,481.8 				"/>
				<polygon class="st30" points="-979.4,491.3 -963.1,586.6 -913.3,481.8 				"/>
				<polygon class="st31" points="-880.6,261.9 -873.8,365 -798.7,238.7 				"/>
				<polygon class="st32" points="-1151.3,66 -1091.1,166.8 -1036.1,111.2 				"/>
				<polygon class="st33" points="-906.4,5.3 -873.8,116.4 -784.4,43.7 				"/>
				<polygon class="st34" points="-975.1,-65.2 -906.4,5.3 -1027.6,19.6 				"/>
				<polygon class="st35" points="-1213.1,-0.2 -1259.8,-40.5 -1344.6,55.7 				"/>
				<polygon class="st36" points="-1669.9,142.7 -1532.5,166.8 -1571.4,66 				"/>
				<polygon class="st37" points="-1794.8,166.8 -1867,127 -1762.7,19.6 -1703.1,30.5 				"/>
				<polygon class="st38" points="-1555.9,-70.3 -1477.5,5.3 -1443.1,-76.1 				"/>
				<polygon class="st39" points="-1259.8,-40.5 -1220.9,-174.6 -1080.5,-96.1 				"/>
				<polygon class="st40" points="-861.5,-241.9 -729.5,-241.9 -788.8,-179.9 				"/>
				<polygon class="st41" points="-2362.7,-105.8 -2257,-93 -2263,-182.3 				"/>
				<polygon class="st42" points="-2393.6,-214.3 -2393.6,-93 -2362.7,-105.8 -2348.1,-209.8 				"/>
				<polygon class="st43" points="-2362.7,-105.8 -2348.1,-209.8 -2263,-182.3 				"/>
				<polygon class="st44" points="-2257,-93 -2263,-182.3 -2105.8,-153.1 -2121.3,-105.8 				"/>
				<polygon class="st45" points="-2323.2,19.6 -2263,24.8 -2121.3,-105.8 -2257,-93 				"/>
				<polygon class="st46" points="-1989.8,-199.5 -2105.8,-153.1 -2121.3,-105.8 -1979.5,-66.3 				"/>
				<polygon class="st47" points="-1874.7,-93 -1979.5,-66.3 -1989.8,-199.5 				"/>
				<polygon class="st48" points="-2134.2,55.7 -2001.9,24.8 -1979.5,-66.3 -2121.3,-105.8 				"/>
				<polygon class="st49" points="-2263,24.8 -2134.2,55.7 -2121.3,-105.8 				"/>
				<polygon class="st50" points="-2303.4,127 -2263,160.5 -2134.2,55.7 -2263,24.8 				"/>
				<polygon class="st51" points="-2323.2,19.6 -2303.4,127 -2263,24.8 				"/>
				<polygon class="st52" points="-2001.9,24.8 -1912.5,66 -1979.5,-66.3 				"/>
				<polygon class="st53" points="-1874.7,-93 -1912.5,66 -1979.5,-66.3 				"/>
				<polygon class="st54" points="-1762.7,19.6 -1912.5,66 -1867,127 				"/>
				<polygon class="st55" points="-1874.7,-93 -1762.7,19.6 -1912.5,66 				"/>
				<polygon class="st56" points="-1785.1,-96.1 -1762.7,19.6 -1874.7,-93 				"/>
				<polygon class="st57" points="-1813.7,-166.6 -1785.1,-96.1 -1874.7,-93 				"/>
				<polygon class="st58" points="-1908.8,-207.8 -1813.7,-166.6 -1874.7,-93 				"/>
				<polygon class="st59" points="-1989.8,-199.5 -1908.8,-207.8 -1874.7,-93 				"/>
				<polygon class="st60" points="-1657.3,-70.3 -1785.1,-96.1 -1762.7,19.6 				"/>
				<polygon class="st61" points="-1638.4,-163.7 -1657.3,-70.3 -1785.1,-96.1 				"/>
				<polygon class="st62" points="-1813.7,-166.6 -1638.4,-163.7 -1785.1,-96.1 				"/>
				<polygon class="st63" points="-1555.9,-70.3 -1571.4,66 -1477.5,5.3 				"/>
				<polygon class="st64" points="-1344.6,55.7 -1414.5,127 -1327.4,166.8 				"/>
				<polygon class="st65" points="-1532.5,166.8 -1524.4,261.9 -1657.3,255 				"/>
				<polygon class="st5" points="-1342.3,-93 -1344.6,55.7 -1259.8,-40.5 				"/>
				<polygon class="st66" points="-1443.1,-76.1 -1477.5,5.3 -1344.6,55.7 -1342.3,-93 				"/>
				<polygon class="st67" points="-1703.1,30.5 -1571.4,66 -1669.9,142.7 				"/>
				<polygon class="st68" points="-2263,160.5 -2115.9,160.5 -2134.2,55.7 				"/>
				<polygon class="st69" points="-2200.6,286.1 -2115.9,160.5 -2263,160.5 -2336.3,286.1 				"/>
				<polygon class="st70" points="-2105.8,238.3 -2115.9,160.5 -2200.6,286.1 				"/>
				<polygon class="st71" points="-1984.5,118.9 -2134.2,55.7 -2115.9,160.5 				"/>
				<polygon class="st72" points="-2022.5,252.5 -2105.8,238.3 -2115.9,160.5 -1984.5,118.9 				"/>
				<polygon class="st37" points="-1874.7,236.1 -1867,127 -1984.5,118.9 -2022.5,252.5 				"/>
				<polygon class="st73" points="-1984.5,118.9 -2001.9,24.8 -2134.2,55.7 				"/>
				<polygon class="st74" points="-1912.5,66 -1984.5,118.9 -2001.9,24.8 				"/>
				<polygon class="st75" points="-1867,127 -1912.5,66 -1984.5,118.9 				"/>
				<polygon class="st76" points="-1874.7,236.1 -1794.8,166.8 -1867,127 				"/>
				<polygon class="st77" points="-1785.1,275.6 -1657.3,255 -1794.8,166.8 				"/>
				<polygon class="st78" points="-1571.4,66 -1532.5,166.8 -1414.5,127 				"/>
				<polygon class="st37" points="-1657.3,-70.3 -1703.1,30.5 -1571.4,66 				"/>
				<polygon class="st79" points="-1524.4,-208.1 -1555.9,-70.3 -1443.1,-76.1 				"/>
				<polygon class="st80" points="-1477.5,5.3 -1414.5,127 -1344.6,55.7 				"/>
				<polygon class="st81" points="-1327.4,166.8 -1322.2,275.6 -1198.5,285.1 				"/>
				<polygon class="st82" points="-1468.3,261.9 -1468.3,349.5 -1524.4,261.9 				"/>
				<polygon class="st83" points="-1331.7,390.8 -1244.9,349.5 -1256.1,481.8 				"/>
				<polygon class="st84" points="-1468.3,349.5 -1477.5,461.2 -1331.7,390.8 				"/>
				<polygon class="st85" points="-1136.7,390.8 -1122.9,506.7 -979.4,491.3 				"/>
				<polygon class="st86" points="-1086.8,275.6 -1091.1,166.8 -1027.6,238.7 				"/>
				<polygon class="st87" points="-1151.3,66 -1213.1,122.7 -1091.1,166.8 				"/>
				<polygon class="st88" points="-1344.6,55.7 -1213.1,122.7 -1327.4,166.8 				"/>
				<polygon class="st89" points="-1690.8,377 -1649.6,499.9 -1564.5,365.8 				"/>
				<polygon class="st90" points="-1775.9,339.2 -1895.3,365.8 -1785.1,275.6 				"/>
				<polygon class="st91" points="-1874.7,236.1 -1895.3,365.8 -1785.1,275.6 				"/>
				<polygon class="st92" points="-1198.5,285.1 -1244.9,349.5 -1136.7,390.8 				"/>
				<polygon class="st93" points="-1198.5,285.1 -1213.1,122.7 -1091.1,166.8 				"/>
				<polygon class="st94" points="-1762.7,19.6 -1657.3,-70.3 -1703.1,30.5 				"/>
				<polygon class="st66" points="-2022.5,252.5 -1895.3,365.8 -1874.7,236.1 				"/>
				<polygon class="st78" points="-1669.9,142.7 -1657.3,255 -1532.5,166.8 				"/>
				<polygon class="st95" points="-1794.8,166.8 -1669.9,142.7 -1703.1,30.5 				"/>
				<polygon class="st96" points="-1657.3,-70.3 -1555.9,-70.3 -1571.4,66 				"/>
				<polygon class="st97" points="-1091.1,166.8 -1036.1,111.2 -1027.6,238.7 				"/>
				<polygon class="st98" points="-1322.2,275.6 -1331.7,390.8 -1468.3,349.5 				"/>
				<polygon class="st99" points="-1151.3,66 -1027.6,19.6 -1036.1,111.2 				"/>
				<polygon class="st100" points="-1027.6,238.7 -880.6,261.9 -979.4,355.5 				"/>
				<polygon class="st101" points="-1532.5,166.8 -1468.3,261.9 -1414.5,127 				"/>
				<polygon class="st102" points="-1649.6,499.9 -1555.9,499.9 -1571.4,586.6 				"/>
				<polygon class="st103" points="-1477.5,461.2 -1342.3,512.8 -1477.5,626.2 				"/>
				<polygon class="st104" points="-1331.7,390.8 -1342.3,512.8 -1477.5,461.2 				"/>
				<polygon class="st105" points="-1322.2,275.6 -1244.9,349.5 -1331.7,390.8 				"/>
				<polygon class="st106" points="-1344.6,55.7 -1213.1,-0.2 -1213.1,122.7 				"/>
				<polygon class="st107" points="-1477.5,5.3 -1414.5,127 -1571.4,66 				"/>
				<polygon class="st108" points="-1213.1,-0.2 -1151.3,66 -1213.1,122.7 				"/>
				<polygon class="st109" points="-1080.5,-96.1 -1027.6,19.6 -975.1,-65.2 				"/>
				<polygon class="st110" points="-906.4,5.3 -1036.1,111.2 -873.8,116.4 				"/>
				<polygon class="st111" points="-880.6,261.9 -798.7,238.7 -873.8,116.4 				"/>
				<polygon class="st112" points="-1086.8,275.6 -979.4,355.5 -1136.7,390.8 				"/>
				<polygon class="st113" points="-880.6,261.9 -873.8,365 -979.4,355.5 				"/>
				<polygon class="st114" points="-1086.8,275.6 -1091.1,166.8 -1198.5,285.1 				"/>
				<polygon class="st23" points="-1256.1,481.8 -1136.7,390.8 -1244.9,349.5 				"/>
				<polygon class="st25" points="-979.4,355.5 -979.4,491.3 -1136.7,390.8 				"/>
				<polygon class="st115" points="-1690.8,377 -1657.3,255 -1564.5,365.8 				"/>
				<polygon class="st116" points="-1327.4,166.8 -1322.2,275.6 -1468.3,349.5 				"/>
				<polygon class="st1" points="-1468.3,261.9 -1468.3,349.5 -1327.4,166.8 				"/>
				<polygon class="st117" points="-1036.1,111.2 -1027.6,238.7 -873.8,116.4 				"/>
				<polygon class="st107" points="-1794.8,166.8 -1657.3,255 -1669.9,142.7 				"/>
				<polygon class="st30" points="-1119.5,597 -979.4,491.3 -963.1,586.6 				"/>
				<polygon class="st118" points="-1753.6,586.6 -1785.1,491.3 -1895.3,562.6 				"/>
				<polygon class="st119" points="-2218.8,603.8 -2336.3,700.4 -2171.1,700.4 -2134.2,614.1 				"/>
				<polygon class="st120" points="-1912.5,677.7 -2016.5,569.5 -2037.1,677.7 				"/>
				<polygon class="st121" points="-1867,451.8 -2001.9,469.8 -1895.3,365.8 				"/>
				<polygon class="st122" points="-1342.3,-93 -1220.9,-174.6 -1259.8,-40.5 				"/>
				<polygon class="st123" points="-1080.5,-96.1 -975.1,-174.6 -975.1,-65.2 				"/>
				<polygon class="st124" points="-866.9,-65.2 -906.4,5.3 -784.4,43.7 				"/>
				<polygon class="st125" points="-1555.9,499.9 -1564.5,365.8 -1649.6,499.9 				"/>
				<polygon class="st126" points="-1867,451.8 -1775.9,339.2 -1785.1,491.3 				"/>
				<polygon class="st127" points="-1895.3,562.6 -2001.9,469.8 -2016.5,569.5 				"/>
				<polygon class="st128" points="-2022.5,252.5 -2022.5,355.5 -2153.2,377 				"/>
				<polygon class="st129" points="-2200.6,286.1 -2263,337.9 -2356.1,355.5 -2336.3,286.1 				"/>
				<polygon class="st130" points="-2226.1,499.9 -2105.8,512.8 -2218.8,603.8 				"/>
				<polygon class="st131" points="-2134.2,614.1 -2016.5,569.5 -2037.1,677.7 				"/>
				<polygon class="st132" points="-1785.1,491.3 -1649.6,499.9 -1753.6,586.6 				"/>
				<polygon class="st133" points="-1571.4,586.6 -1477.5,626.2 -1555.9,700.4 				"/>
				<polygon class="st134" points="-1220.9,569.5 -1122.9,506.7 -1256.1,481.8 				"/>
				<polygon class="st135" points="-963.1,586.6 -913.3,481.8 -819.9,525.6 -880.6,626.2 				"/>
				<polygon class="st136" points="-873.8,365 -752.3,349.5 -798.7,238.7 				"/>
				<polygon class="st137" points="-1080.5,-96.1 -1151.3,66 -1027.6,19.6 				"/>
				<polygon class="st138" points="-1342.3,-93 -1435.1,-221.5 -1443.1,-76.1 				"/>
				<polygon class="st139" points="-1690.8,377 -1785.1,491.3 -1775.9,339.2 				"/>
				<polygon class="st140" points="-1327.4,166.8 -1198.5,285.1 -1213.1,122.7 				"/>
				<polygon class="st141" points="-913.3,481.8 -873.8,365 -819.9,525.6 				"/>
				<polygon class="st142" points="-784.4,43.7 -752.3,-107.6 -866.9,-65.2 				"/>
				<polygon class="st143" points="-1107.5,-194.1 -1080.5,-96.1 -1220.9,-174.6 				"/>
				<polygon class="st144" points="-1259.8,-40.5 -1080.5,-96.1 -1213.1,-0.2 				"/>
				<polygon class="st145" points="-866.9,-65.2 -861.5,-241.9 -788.8,-179.9 				"/>
				<polygon class="st146" points="-873.8,116.4 -880.6,261.9 -1027.6,238.7 				"/>
				<polygon class="st147" points="-1638.4,-163.7 -1524.4,-208.1 -1555.9,-70.3 -1657.3,-70.3 				"/>
				<polygon class="st148" points="-1895.3,365.8 -1867,451.8 -1775.9,339.2 				"/>
				<polygon class="st149" points="-2022.5,355.5 -2105.8,512.8 -2153.2,377 				"/>
				<polygon class="st150" points="-2263,337.9 -2336.3,508.5 -2226.1,499.9 				"/>
				<polygon class="st151" points="-2105.8,238.3 -2153.2,377 -2022.5,252.5 				"/>
				<polygon class="st152" points="-1435.1,-221.5 -1524.4,-208.1 -1443.1,-76.1 				"/>
				<polygon class="st153" points="-1342.3,-93 -1339.1,-216.7 -1435.1,-221.5 				"/>
				<polygon class="st154" points="-1213.1,-0.2 -1151.3,66 -1080.5,-96.1 				"/>
				<polygon class="st155" points="-1027.6,19.6 -1036.1,111.2 -906.4,5.3 				"/>
				<polygon class="st156" points="-873.8,116.4 -784.4,43.7 -798.7,116.4 				"/>
				<polygon class="st157" points="-2001.9,469.8 -2022.5,355.5 -1895.3,365.8 				"/>
				<polygon class="st158" points="-1895.3,562.6 -1912.5,677.7 -1753.6,586.6 				"/>
				<polygon class="st159" points="-1555.9,499.9 -1477.5,461.2 -1477.5,626.2 				"/>
				<path class="st160" d="M-2362.7-105.8"/>
				<polygon class="st161" points="-1119.5,597 -1220.9,569.5 -1122.9,506.7 -979.4,491.3 				"/>
				<polygon class="st162" points="-880.6,626.2 -774.7,630.2 -819.9,525.6 				"/>
				<polygon class="st163" points="-905.3,687.5 -880.6,626.2 -963.1,586.6 -1031.3,670.3 				"/>
				<polygon class="st164" points="-1119.5,597 -1100.2,670.3 -1031.3,670.3 -963.1,586.6 				"/>
				<polygon class="st165" points="-1220.9,569.5 -1240.2,700.4 -1220.9,700.4 -1119.5,597 				"/>
				<polygon class="st166" points="-1399.9,700.4 -1260.9,700.4 -1322.2,576.3 				"/>
				<polygon class="st167" points="-1322.2,576.3 -1220.9,569.5 -1240.2,700.4 -1260.9,700.4 				"/>
				<polygon class="st168" points="-1555.9,700.4 -1399.9,700.4 -1477.5,626.2 				"/>
				<polygon class="st169" points="-1322.2,576.3 -1399.9,700.4 -1477.5,626.2 				"/>
				<polygon class="st170" points="-1912.5,677.7 -1840.2,700.4 -1753.6,700.4 -1753.6,586.6 				"/>
				<polygon class="st171" points="-1555.9,700.4 -1644.7,575.8 -1679.5,700.4 				"/>
				<polygon class="st172" points="-1555.9,499.9 -1571.4,586.6 -1477.5,626.2 				"/>
				<polygon class="st173" points="-1649.6,499.9 -1644.7,575.8 -1753.6,586.6 				"/>
				<polygon class="st174" points="-1564.5,365.8 -1555.9,499.9 -1477.5,461.2 				"/>
				<polygon class="st175" points="-2001.9,469.8 -2016.5,569.5 -2105.8,512.8 				"/>
				<polygon class="st176" points="-1840.2,700.4 -1912.5,677.7 -2037.1,677.7 -1938.6,700.4 				"/>
				<polygon class="st177" points="-2134.2,614.1 -2171.1,700.4 -2050,700.4 -2037.1,677.7 				"/>
				<polygon class="st178" points="-2105.8,512.8 -2134.2,614.1 -2016.5,569.5 				"/>
				<polygon class="st120" points="-2050,700.4 -1938.6,700.4 -2037.1,677.7 				"/>
				<polygon class="st179" points="-2105.8,512.8 -2134.2,614.1 -2218.8,603.8 				"/>
				<polygon class="st180" points="-2153.2,377 -2226.1,499.9 -2105.8,512.8 				"/>
				<polygon class="st181" points="-2336.3,700.4 -2393.6,700.4 -2393.6,620.2 -2356.1,583.2 -2218.8,603.8 				"/>
				<polygon class="st182" points="-2393.6,367.5 -2393.6,495.6 -2336.3,508.5 -2263,337.9 -2356.1,355.5 				"/>
				<polygon class="st183" points="-2393.6,620.2 -2356.1,583.2 -2393.6,575.8 				"/>
				<polygon class="st184" points="-2336.3,508.5 -2393.6,534.2 -2393.6,575.8 -2356.1,583.2 				"/>
				<polygon class="st185" points="-2393.6,495.6 -2393.6,534.2 -2336.3,508.5 				"/>
				<polygon class="st186" points="-880.6,626.2 -905.3,687.5 -774.7,630.2 				"/>
				<polygon class="st187" points="-819.9,525.6 -718.3,581.5 -718.3,610.9 -774.7,630.2 				"/>
				<polygon class="st188" points="-905.3,687.5 -905.3,700.4 -718.3,700.4 -774.7,630.2 				"/>
				<polygon class="st189" points="-1031.3,670.3 -1041.3,700.4 -905.3,700.4 -905.3,687.5 				"/>
				<polygon class="st190" points="-1119.5,597 -1100.2,670.3 -1179.8,700.4 -1220.9,700.4 				"/>
				<polygon class="st191" points="-1041.3,700.4 -1031.3,670.3 -1100.2,670.3 -1179.8,700.4 				"/>
				<polygon class="st163" points="-819.9,525.6 -718.3,468.5 -718.3,581.5 				"/>
				<polygon class="st192" points="-774.7,630.2 -718.3,610.9 -718.3,700.4 				"/>
				<polygon class="st193" points="-979.4,355.5 -913.3,481.8 -873.8,365 				"/>
				<polygon class="st194" points="-873.8,365 -819.9,525.6 -752.3,349.5 				"/>
				<polygon class="st195" points="-752.3,349.5 -718.3,301.8 -718.3,180.2 -798.7,238.7 				"/>
				<polygon class="st196" points="-819.9,525.6 -718.3,468.5 -718.3,397.4 -752.3,349.5 				"/>
				<polygon class="st197" points="-718.3,301.8 -718.3,355.5 -752.3,349.5 				"/>
				<polygon class="st198" points="-718.3,397.4 -718.3,355.5 -752.3,349.5 				"/>
				<polygon class="st199" points="-873.8,116.4 -798.7,238.7 -798.7,116.4 				"/>
				<polygon class="st200" points="-718.3,180.2 -798.7,238.7 -798.7,116.4 -718.3,162.2 				"/>
				<polygon class="st104" points="-1136.7,390.8 -1198.5,285.1 -1086.8,275.6 				"/>
				<polygon class="st201" points="-718.3,162.2 -718.3,27.6 -784.4,43.7 -798.7,116.4 				"/>
				<polygon class="st202" points="-752.3,-107.6 -718.3,-90 -718.3,27.6 -784.4,43.7 				"/>
				<polygon class="st203" points="-788.8,-179.9 -752.3,-107.6 -866.9,-65.2 				"/>
				<polygon class="st204" points="-729.5,-241.9 -788.8,-179.9 -718.3,-197.5 -718.3,-241.9 				"/>
				<polygon class="st205" points="-752.3,-107.6 -718.3,-197.5 -718.3,-90 				"/>
				<polygon class="st206" points="-788.8,-179.9 -718.3,-197.5 -752.3,-107.6 				"/>
				<polygon class="st179" points="-975.1,-174.6 -866.9,-65.2 -975.1,-65.2 				"/>
				<polygon class="st207" points="-906.4,5.3 -866.9,-65.2 -975.1,-65.2 				"/>
				<polygon class="st208" points="-975.1,-174.6 -861.5,-241.9 -866.9,-65.2 				"/>
				<polygon class="st209" points="-1107.5,-194.1 -975.1,-174.6 -1080.5,-96.1 				"/>
				<polygon class="st210" points="-1339.1,-216.7 -1220.9,-174.6 -1342.3,-93 				"/>
				<polygon class="st211" points="-989.4,-241.9 -975.1,-174.6 -861.5,-241.9 				"/>
				<polygon class="st212" points="-1107.5,-194.1 -1089.4,-241.9 -989.4,-241.9 -975.1,-174.6 				"/>
				<polygon class="st213" points="-1220.9,-174.6 -1234.7,-241.9 -1182.2,-241.9 -1107.5,-194.1 				"/>
				<polygon class="st214" points="-1089.4,-241.9 -1107.5,-194.1 -1182.2,-241.9 				"/>
				<polygon class="st215" points="-1339.1,-216.7 -1285.7,-241.9 -1234.7,-241.9 -1220.9,-174.6 				"/>
				<polygon class="st216" points="-1435.1,-241.9 -1435.1,-221.5 -1339.1,-216.7 -1331.3,-241.9 				"/>
				<polygon class="st217" points="-1285.7,-241.9 -1331.3,-241.9 -1339.1,-216.7 				"/>
				<polygon class="st218" points="-1524.4,-208.1 -1474.5,-241.9 -1435.1,-241.9 -1435.1,-221.5 				"/>
				<polygon class="st219" points="-1638.4,-163.7 -1578.1,-241.9 -1474.5,-241.9 -1524.4,-208.1 				"/>
				<polygon class="st220" points="-1874.7,236.1 -1794.8,166.8 -1785.1,275.6 				"/>
				<polygon class="st221" points="-2303.4,127 -2263,160.5 -2336.3,286.1 				"/>
				<polygon class="st222" points="-2393.6,272.8 -2393.6,367.5 -2356.1,355.5 -2336.3,286.1 				"/>
				<polygon class="st223" points="-2393.6,148.7 -2393.6,272.8 -2336.3,286.1 -2303.4,127 				"/>
				<polygon class="st224" points="-2393.6,66 -2393.6,148.7 -2303.4,127 				"/>
				<polygon class="st225" points="-2393.6,38.1 -2393.6,66 -2303.4,127 -2323.2,19.6 				"/>
				<polygon class="st226" points="-2393.6,-32.4 -2393.6,38.1 -2323.2,19.6 				"/>
				<polygon class="st227" points="-2393.6,-93 -2362.7,-105.8 -2323.2,19.6 -2393.6,-32.4 				"/>
				<polygon class="st228" points="-2257,-93 -2323.2,19.6 -2362.7,-105.8 				"/>
				<polygon class="st229" points="-2393.6,-241.9 -2393.6,-214.3 -2348.1,-209.8 -2358.4,-241.9 				"/>
				<polygon class="st230" points="-2309.9,-241.9 -2348.1,-209.8 -2358.4,-241.9 				"/>
				<polygon class="st231" points="-2239.1,-241.9 -2263,-182.3 -2348.1,-209.8 -2309.9,-241.9 				"/>
				<polygon class="st41" points="-2056.8,-241.9 -2105.8,-153.1 -2101.7,-241.9 				"/>
				<polygon class="st232" points="-2239.1,-241.9 -2263,-182.3 -2105.8,-153.1 -2101.7,-241.9 				"/>
				<polygon class="st233" points="-1997.4,-241.9 -1989.8,-199.5 -2105.8,-153.1 -2056.8,-241.9 				"/>
				<polygon class="st234" points="-1932.3,-241.9 -1989.8,-199.5 -1997.4,-241.9 				"/>
				<polygon class="st235" points="-1908.8,-207.8 -1893,-241.9 -1932.3,-241.9 -1989.8,-199.5 				"/>
				<polygon class="st236" points="-1781.7,-241.9 -1813.7,-166.6 -1908.8,-207.8 -1813.7,-241.9 				"/>
				<polygon class="st236" points="-1893,-241.9 -1908.8,-207.8 -1813.7,-241.9 				"/>
				<polygon class="st237" points="-1638.4,-163.7 -1690.7,-241.9 -1781.7,-241.9 -1813.7,-166.6 				"/>
				<polygon class="st238" points="-1621.6,-241.9 -1638.4,-163.7 -1578.1,-241.9 				"/>
				<polygon class="st239" points="-1690.7,-241.9 -1621.6,-241.9 -1638.4,-163.7 				"/>
				<polygon class="st240" points="-1524.4,261.9 -1564.5,365.8 -1468.3,349.5 				"/>
				<polygon class="st241" points="-1657.3,255 -1690.8,377 -1775.9,339.2 				"/>
				<polygon class="st242" points="-1342.3,512.8 -1322.2,576.3 -1256.1,481.8 				"/>
				<polygon class="st14" points="-1644.7,575.8 -1679.5,700.4 -1690.8,700.4 -1753.6,586.6 				"/>
				<polygon class="st243" points="-1753.6,700.4 -1690.8,700.4 -1753.6,586.6 				"/>
				<polygon class="st244" points="-2022.5,355.5 -2001.9,469.8 -2105.8,512.8 				"/>
				<polygon class="st8" points="-2022.5,252.5 -2022.5,355.5 -1895.3,365.8 				"/>
				<polygon class="st9" points="-2336.3,508.5 -2356.1,583.2 -2218.8,603.8 -2226.1,499.9 				"/>
				<polygon class="st10" points="-2153.2,377 -2226.1,499.9 -2263,337.9 				"/>
				<polygon class="st11" points="-2263,337.9 -2200.6,286.1 -2105.8,238.3 -2153.2,377 				"/>
				<polygon class="st12" points="-1867,451.8 -1895.3,562.6 -2001.9,469.8 				"/>
				<polygon class="st13" points="-1895.3,562.6 -1867,451.8 -1785.1,491.3 				"/>
				<polygon class="st14" points="-1644.7,575.8 -1649.6,499.9 -1571.4,586.6 				"/>
				<polygon class="st15" points="-1571.4,586.6 -1555.9,700.4 -1644.7,575.8 				"/>
				<polygon class="st16" points="-1895.3,562.6 -1912.5,677.7 -2016.5,569.5 				"/>
				<polygon class="st17" points="-1342.3,512.8 -1322.2,576.3 -1477.5,626.2 				"/>
				<polygon class="st18" points="-1690.8,377 -1649.6,499.9 -1785.1,491.3 				"/>
				<polygon class="st19" points="-1785.1,275.6 -1775.9,339.2 -1657.3,255 				"/>
				<polygon class="st20" points="-1657.3,255 -1564.5,365.8 -1524.4,261.9 				"/>
				<polygon class="st21" points="-1532.5,166.8 -1468.3,261.9 -1524.4,261.9 				"/>
				<polygon class="st22" points="-1564.5,365.8 -1468.3,349.5 -1477.5,461.2 				"/>
				<polygon class="st23" points="-1342.3,512.8 -1256.1,481.8 -1331.7,390.8 				"/>
				<polygon class="st24" points="-1256.1,481.8 -1122.9,506.7 -1136.7,390.8 				"/>
				<polygon class="st25" points="-1256.1,481.8 -1322.2,576.3 -1220.9,569.5 				"/>
				<polygon class="st26" points="-1244.9,349.5 -1198.5,285.1 -1322.2,275.6 				"/>
				<polygon class="st27" points="-1414.5,127 -1468.3,261.9 -1327.4,166.8 				"/>
				<polygon class="st28" points="-1086.8,275.6 -1027.6,238.7 -979.4,355.5 				"/>
				<polygon class="st29" points="-979.4,355.5 -979.4,491.3 -913.3,481.8 				"/>
				<polygon class="st30" points="-979.4,491.3 -963.1,586.6 -913.3,481.8 				"/>
				<polygon class="st31" points="-880.6,261.9 -873.8,365 -798.7,238.7 				"/>
				<polygon class="st32" points="-1151.3,66 -1091.1,166.8 -1036.1,111.2 				"/>
				<polygon class="st33" points="-906.4,5.3 -873.8,116.4 -784.4,43.7 				"/>
				<polygon class="st34" points="-975.1,-65.2 -906.4,5.3 -1027.6,19.6 				"/>
				<polygon class="st35" points="-1213.1,-0.2 -1259.8,-40.5 -1344.6,55.7 				"/>
				<polygon class="st36" points="-1669.9,142.7 -1532.5,166.8 -1571.4,66 				"/>
				<polygon class="st37" points="-1794.8,166.8 -1867,127 -1762.7,19.6 -1703.1,30.5 				"/>
				<polygon class="st38" points="-1555.9,-70.3 -1477.5,5.3 -1443.1,-76.1 				"/>
				<polygon class="st39" points="-1259.8,-40.5 -1220.9,-174.6 -1080.5,-96.1 				"/>
				<polygon class="st40" points="-861.5,-241.9 -729.5,-241.9 -788.8,-179.9 				"/>
				<polygon class="st41" points="-2362.7,-105.8 -2257,-93 -2263,-182.3 				"/>
				<polygon class="st42" points="-2393.6,-214.3 -2393.6,-93 -2362.7,-105.8 -2348.1,-209.8 				"/>
				<polygon class="st43" points="-2362.7,-105.8 -2348.1,-209.8 -2263,-182.3 				"/>
				<polygon class="st44" points="-2257,-93 -2263,-182.3 -2105.8,-153.1 -2121.3,-105.8 				"/>
				<polygon class="st45" points="-2323.2,19.6 -2263,24.8 -2121.3,-105.8 -2257,-93 				"/>
				<polygon class="st46" points="-1989.8,-199.5 -2105.8,-153.1 -2121.3,-105.8 -1979.5,-66.3 				"/>
				<polygon class="st47" points="-1874.7,-93 -1979.5,-66.3 -1989.8,-199.5 				"/>
				<polygon class="st48" points="-2134.2,55.7 -2001.9,24.8 -1979.5,-66.3 -2121.3,-105.8 				"/>
				<polygon class="st49" points="-2263,24.8 -2134.2,55.7 -2121.3,-105.8 				"/>
				<polygon class="st50" points="-2303.4,127 -2263,160.5 -2134.2,55.7 -2263,24.8 				"/>
				<polygon class="st51" points="-2323.2,19.6 -2303.4,127 -2263,24.8 				"/>
				<polygon class="st52" points="-2001.9,24.8 -1912.5,66 -1979.5,-66.3 				"/>
				<polygon class="st53" points="-1874.7,-93 -1912.5,66 -1979.5,-66.3 				"/>
				<polygon class="st54" points="-1762.7,19.6 -1912.5,66 -1867,127 				"/>
				<polygon class="st55" points="-1874.7,-93 -1762.7,19.6 -1912.5,66 				"/>
				<polygon class="st56" points="-1785.1,-96.1 -1762.7,19.6 -1874.7,-93 				"/>
				<polygon class="st57" points="-1813.7,-166.6 -1785.1,-96.1 -1874.7,-93 				"/>
				<polygon class="st58" points="-1908.8,-207.8 -1813.7,-166.6 -1874.7,-93 				"/>
				<polygon class="st59" points="-1989.8,-199.5 -1908.8,-207.8 -1874.7,-93 				"/>
				<polygon class="st60" points="-1657.3,-70.3 -1785.1,-96.1 -1762.7,19.6 				"/>
				<polygon class="st61" points="-1638.4,-163.7 -1657.3,-70.3 -1785.1,-96.1 				"/>
				<polygon class="st62" points="-1813.7,-166.6 -1638.4,-163.7 -1785.1,-96.1 				"/>
				<polygon class="st63" points="-1555.9,-70.3 -1571.4,66 -1477.5,5.3 				"/>
				<polygon class="st64" points="-1344.6,55.7 -1414.5,127 -1327.4,166.8 				"/>
				<polygon class="st65" points="-1532.5,166.8 -1524.4,261.9 -1657.3,255 				"/>
				<polygon class="st5" points="-1342.3,-93 -1344.6,55.7 -1259.8,-40.5 				"/>
				<polygon class="st66" points="-1443.1,-76.1 -1477.5,5.3 -1344.6,55.7 -1342.3,-93 				"/>
				<polygon class="st67" points="-1703.1,30.5 -1571.4,66 -1669.9,142.7 				"/>
				<polygon class="st68" points="-2263,160.5 -2115.9,160.5 -2134.2,55.7 				"/>
				<polygon class="st69" points="-2200.6,286.1 -2115.9,160.5 -2263,160.5 -2336.3,286.1 				"/>
				<polygon class="st70" points="-2105.8,238.3 -2115.9,160.5 -2200.6,286.1 				"/>
				<polygon class="st71" points="-1984.5,118.9 -2134.2,55.7 -2115.9,160.5 				"/>
				<polygon class="st72" points="-2022.5,252.5 -2105.8,238.3 -2115.9,160.5 -1984.5,118.9 				"/>
				<polygon class="st37" points="-1874.7,236.1 -1867,127 -1984.5,118.9 -2022.5,252.5 				"/>
				<polygon class="st73" points="-1984.5,118.9 -2001.9,24.8 -2134.2,55.7 				"/>
				<polygon class="st74" points="-1912.5,66 -1984.5,118.9 -2001.9,24.8 				"/>
				<polygon class="st75" points="-1867,127 -1912.5,66 -1984.5,118.9 				"/>
				<polygon class="st76" points="-1874.7,236.1 -1794.8,166.8 -1867,127 				"/>
				<polygon class="st77" points="-1785.1,275.6 -1657.3,255 -1794.8,166.8 				"/>
				<polygon class="st78" points="-1571.4,66 -1532.5,166.8 -1414.5,127 				"/>
				<polygon class="st37" points="-1657.3,-70.3 -1703.1,30.5 -1571.4,66 				"/>
				<polygon class="st79" points="-1524.4,-208.1 -1555.9,-70.3 -1443.1,-76.1 				"/>
				<polygon class="st80" points="-1477.5,5.3 -1414.5,127 -1344.6,55.7 				"/>
				<polygon class="st81" points="-1327.4,166.8 -1322.2,275.6 -1198.5,285.1 				"/>
				<polygon class="st82" points="-1468.3,261.9 -1468.3,349.5 -1524.4,261.9 				"/>
				<polygon class="st83" points="-1331.7,390.8 -1244.9,349.5 -1256.1,481.8 				"/>
				<polygon class="st84" points="-1468.3,349.5 -1477.5,461.2 -1331.7,390.8 				"/>
				<polygon class="st85" points="-1136.7,390.8 -1122.9,506.7 -979.4,491.3 				"/>
				<polygon class="st86" points="-1086.8,275.6 -1091.1,166.8 -1027.6,238.7 				"/>
				<polygon class="st87" points="-1151.3,66 -1213.1,122.7 -1091.1,166.8 				"/>
				<polygon class="st88" points="-1344.6,55.7 -1213.1,122.7 -1327.4,166.8 				"/>
				<polygon class="st89" points="-1690.8,377 -1649.6,499.9 -1564.5,365.8 				"/>
				<polygon class="st90" points="-1775.9,339.2 -1895.3,365.8 -1785.1,275.6 				"/>
				<polygon class="st91" points="-1874.7,236.1 -1895.3,365.8 -1785.1,275.6 				"/>
				<polygon class="st92" points="-1198.5,285.1 -1244.9,349.5 -1136.7,390.8 				"/>
				<polygon class="st93" points="-1198.5,285.1 -1213.1,122.7 -1091.1,166.8 				"/>
				<polygon class="st94" points="-1762.7,19.6 -1657.3,-70.3 -1703.1,30.5 				"/>
				<polygon class="st66" points="-2022.5,252.5 -1895.3,365.8 -1874.7,236.1 				"/>
				<polygon class="st78" points="-1669.9,142.7 -1657.3,255 -1532.5,166.8 				"/>
				<polygon class="st95" points="-1794.8,166.8 -1669.9,142.7 -1703.1,30.5 				"/>
				<polygon class="st96" points="-1657.3,-70.3 -1555.9,-70.3 -1571.4,66 				"/>
				<polygon class="st97" points="-1091.1,166.8 -1036.1,111.2 -1027.6,238.7 				"/>
				<polygon class="st98" points="-1322.2,275.6 -1331.7,390.8 -1468.3,349.5 				"/>
				<polygon class="st99" points="-1151.3,66 -1027.6,19.6 -1036.1,111.2 				"/>
				<polygon class="st100" points="-1027.6,238.7 -880.6,261.9 -979.4,355.5 				"/>
				<polygon class="st101" points="-1532.5,166.8 -1468.3,261.9 -1414.5,127 				"/>
				<polygon class="st102" points="-1649.6,499.9 -1555.9,499.9 -1571.4,586.6 				"/>
				<polygon class="st103" points="-1477.5,461.2 -1342.3,512.8 -1477.5,626.2 				"/>
				<polygon class="st104" points="-1331.7,390.8 -1342.3,512.8 -1477.5,461.2 				"/>
				<polygon class="st105" points="-1322.2,275.6 -1244.9,349.5 -1331.7,390.8 				"/>
				<polygon class="st106" points="-1344.6,55.7 -1213.1,-0.2 -1213.1,122.7 				"/>
				<polygon class="st107" points="-1477.5,5.3 -1414.5,127 -1571.4,66 				"/>
				<polygon class="st108" points="-1213.1,-0.2 -1151.3,66 -1213.1,122.7 				"/>
				<polygon class="st109" points="-1080.5,-96.1 -1027.6,19.6 -975.1,-65.2 				"/>
				<polygon class="st110" points="-906.4,5.3 -1036.1,111.2 -873.8,116.4 				"/>
				<polygon class="st111" points="-880.6,261.9 -798.7,238.7 -873.8,116.4 				"/>
				<polygon class="st112" points="-1086.8,275.6 -979.4,355.5 -1136.7,390.8 				"/>
				<polygon class="st113" points="-880.6,261.9 -873.8,365 -979.4,355.5 				"/>
				<polygon class="st114" points="-1086.8,275.6 -1091.1,166.8 -1198.5,285.1 				"/>
				<polygon class="st23" points="-1256.1,481.8 -1136.7,390.8 -1244.9,349.5 				"/>
				<polygon class="st25" points="-979.4,355.5 -979.4,491.3 -1136.7,390.8 				"/>
				<polygon class="st115" points="-1690.8,377 -1657.3,255 -1564.5,365.8 				"/>
				<polygon class="st116" points="-1327.4,166.8 -1322.2,275.6 -1468.3,349.5 				"/>
				<polygon class="st1" points="-1468.3,261.9 -1468.3,349.5 -1327.4,166.8 				"/>
				<polygon class="st117" points="-1036.1,111.2 -1027.6,238.7 -873.8,116.4 				"/>
				<polygon class="st107" points="-1794.8,166.8 -1657.3,255 -1669.9,142.7 				"/>
				<polygon class="st30" points="-1119.5,597 -979.4,491.3 -963.1,586.6 				"/>
				<polygon class="st118" points="-1753.6,586.6 -1785.1,491.3 -1895.3,562.6 				"/>
				<polygon class="st119" points="-2218.8,603.8 -2336.3,700.4 -2171.1,700.4 -2134.2,614.1 				"/>
				<polygon class="st120" points="-1912.5,677.7 -2016.5,569.5 -2037.1,677.7 				"/>
				<polygon class="st121" points="-1867,451.8 -2001.9,469.8 -1895.3,365.8 				"/>
				<polygon class="st122" points="-1342.3,-93 -1220.9,-174.6 -1259.8,-40.5 				"/>
				<polygon class="st123" points="-1080.5,-96.1 -975.1,-174.6 -975.1,-65.2 				"/>
				<polygon class="st124" points="-866.9,-65.2 -906.4,5.3 -784.4,43.7 				"/>
				<polygon class="st125" points="-1555.9,499.9 -1564.5,365.8 -1649.6,499.9 				"/>
				<polygon class="st126" points="-1867,451.8 -1775.9,339.2 -1785.1,491.3 				"/>
				<polygon class="st127" points="-1895.3,562.6 -2001.9,469.8 -2016.5,569.5 				"/>
				<polygon class="st128" points="-2022.5,252.5 -2022.5,355.5 -2153.2,377 				"/>
				<polygon class="st129" points="-2200.6,286.1 -2263,337.9 -2356.1,355.5 -2336.3,286.1 				"/>
				<polygon class="st130" points="-2226.1,499.9 -2105.8,512.8 -2218.8,603.8 				"/>
				<polygon class="st131" points="-2134.2,614.1 -2016.5,569.5 -2037.1,677.7 				"/>
				<polygon class="st132" points="-1785.1,491.3 -1649.6,499.9 -1753.6,586.6 				"/>
				<polygon class="st133" points="-1571.4,586.6 -1477.5,626.2 -1555.9,700.4 				"/>
				<polygon class="st134" points="-1220.9,569.5 -1122.9,506.7 -1256.1,481.8 				"/>
				<polygon class="st135" points="-963.1,586.6 -913.3,481.8 -819.9,525.6 -880.6,626.2 				"/>
				<polygon class="st136" points="-873.8,365 -752.3,349.5 -798.7,238.7 				"/>
				<polygon class="st137" points="-1080.5,-96.1 -1151.3,66 -1027.6,19.6 				"/>
				<polygon class="st138" points="-1342.3,-93 -1435.1,-221.5 -1443.1,-76.1 				"/>
				<polygon class="st139" points="-1690.8,377 -1785.1,491.3 -1775.9,339.2 				"/>
				<polygon class="st140" points="-1327.4,166.8 -1198.5,285.1 -1213.1,122.7 				"/>
				<polygon class="st141" points="-913.3,481.8 -873.8,365 -819.9,525.6 				"/>
				<polygon class="st142" points="-784.4,43.7 -752.3,-107.6 -866.9,-65.2 				"/>
				<polygon class="st143" points="-1107.5,-194.1 -1080.5,-96.1 -1220.9,-174.6 				"/>
				<polygon class="st144" points="-1259.8,-40.5 -1080.5,-96.1 -1213.1,-0.2 				"/>
				<polygon class="st145" points="-866.9,-65.2 -861.5,-241.9 -788.8,-179.9 				"/>
				<polygon class="st146" points="-873.8,116.4 -880.6,261.9 -1027.6,238.7 				"/>
				<polygon class="st147" points="-1638.4,-163.7 -1524.4,-208.1 -1555.9,-70.3 -1657.3,-70.3 				"/>
				<polygon class="st148" points="-1895.3,365.8 -1867,451.8 -1775.9,339.2 				"/>
				<polygon class="st149" points="-2022.5,355.5 -2105.8,512.8 -2153.2,377 				"/>
				<polygon class="st150" points="-2263,337.9 -2336.3,508.5 -2226.1,499.9 				"/>
				<polygon class="st151" points="-2105.8,238.3 -2153.2,377 -2022.5,252.5 				"/>
				<polygon class="st152" points="-1435.1,-221.5 -1524.4,-208.1 -1443.1,-76.1 				"/>
				<polygon class="st153" points="-1342.3,-93 -1339.1,-216.7 -1435.1,-221.5 				"/>
				<polygon class="st154" points="-1213.1,-0.2 -1151.3,66 -1080.5,-96.1 				"/>
				<polygon class="st155" points="-1027.6,19.6 -1036.1,111.2 -906.4,5.3 				"/>
				<polygon class="st156" points="-873.8,116.4 -784.4,43.7 -798.7,116.4 				"/>
				<polygon class="st157" points="-2001.9,469.8 -2022.5,355.5 -1895.3,365.8 				"/>
				<polygon class="st158" points="-1895.3,562.6 -1912.5,677.7 -1753.6,586.6 				"/>
				<polygon class="st159" points="-1555.9,499.9 -1477.5,461.2 -1477.5,626.2 				"/>
				<path class="st160" d="M-2362.7-105.8"/>
				<polygon class="st161" points="-1119.5,597 -1220.9,569.5 -1122.9,506.7 -979.4,491.3 				"/>
				<polygon class="st162" points="-880.6,626.2 -774.7,630.2 -819.9,525.6 				"/>
				<polygon class="st163" points="-905.3,687.5 -880.6,626.2 -963.1,586.6 -1031.3,670.3 				"/>
				<polygon class="st164" points="-1119.5,597 -1100.2,670.3 -1031.3,670.3 -963.1,586.6 				"/>
				<polygon class="st165" points="-1220.9,569.5 -1240.2,700.4 -1220.9,700.4 -1119.5,597 				"/>
				<polygon class="st166" points="-1399.9,700.4 -1260.9,700.4 -1322.2,576.3 				"/>
				<polygon class="st167" points="-1322.2,576.3 -1220.9,569.5 -1240.2,700.4 -1260.9,700.4 				"/>
				<polygon class="st168" points="-1555.9,700.4 -1399.9,700.4 -1477.5,626.2 				"/>
				<polygon class="st169" points="-1322.2,576.3 -1399.9,700.4 -1477.5,626.2 				"/>
				<polygon class="st170" points="-1912.5,677.7 -1840.2,700.4 -1753.6,700.4 -1753.6,586.6 				"/>
				<polygon class="st171" points="-1555.9,700.4 -1644.7,575.8 -1679.5,700.4 				"/>
				<polygon class="st172" points="-1555.9,499.9 -1571.4,586.6 -1477.5,626.2 				"/>
				<polygon class="st173" points="-1649.6,499.9 -1644.7,575.8 -1753.6,586.6 				"/>
				<polygon class="st174" points="-1564.5,365.8 -1555.9,499.9 -1477.5,461.2 				"/>
				<polygon class="st175" points="-2001.9,469.8 -2016.5,569.5 -2105.8,512.8 				"/>
				<polygon class="st176" points="-1840.2,700.4 -1912.5,677.7 -2037.1,677.7 -1938.6,700.4 				"/>
				<polygon class="st177" points="-2134.2,614.1 -2171.1,700.4 -2050,700.4 -2037.1,677.7 				"/>
				<polygon class="st178" points="-2105.8,512.8 -2134.2,614.1 -2016.5,569.5 				"/>
				<polygon class="st120" points="-2050,700.4 -1938.6,700.4 -2037.1,677.7 				"/>
				<polygon class="st179" points="-2105.8,512.8 -2134.2,614.1 -2218.8,603.8 				"/>
				<polygon class="st180" points="-2153.2,377 -2226.1,499.9 -2105.8,512.8 				"/>
				<polygon class="st181" points="-2336.3,700.4 -2393.6,700.4 -2393.6,620.2 -2356.1,583.2 -2218.8,603.8 				"/>
				<polygon class="st182" points="-2393.6,367.5 -2393.6,495.6 -2336.3,508.5 -2263,337.9 -2356.1,355.5 				"/>
				<polygon class="st183" points="-2393.6,620.2 -2356.1,583.2 -2393.6,575.8 				"/>
				<polygon class="st184" points="-2336.3,508.5 -2393.6,534.2 -2393.6,575.8 -2356.1,583.2 				"/>
				<polygon class="st185" points="-2393.6,495.6 -2393.6,534.2 -2336.3,508.5 				"/>
				<polygon class="st186" points="-880.6,626.2 -905.3,687.5 -774.7,630.2 				"/>
				<polygon class="st187" points="-819.9,525.6 -718.3,581.5 -718.3,610.9 -774.7,630.2 				"/>
				<polygon class="st188" points="-905.3,687.5 -905.3,700.4 -718.3,700.4 -774.7,630.2 				"/>
				<polygon class="st189" points="-1031.3,670.3 -1041.3,700.4 -905.3,700.4 -905.3,687.5 				"/>
				<polygon class="st190" points="-1119.5,597 -1100.2,670.3 -1179.8,700.4 -1220.9,700.4 				"/>
				<polygon class="st191" points="-1041.3,700.4 -1031.3,670.3 -1100.2,670.3 -1179.8,700.4 				"/>
				<polygon class="st163" points="-819.9,525.6 -718.3,468.5 -718.3,581.5 				"/>
				<polygon class="st192" points="-774.7,630.2 -718.3,610.9 -718.3,700.4 				"/>
				<polygon class="st193" points="-979.4,355.5 -913.3,481.8 -873.8,365 				"/>
				<polygon class="st194" points="-873.8,365 -819.9,525.6 -752.3,349.5 				"/>
				<polygon class="st195" points="-752.3,349.5 -718.3,301.8 -718.3,180.2 -798.7,238.7 				"/>
				<polygon class="st196" points="-819.9,525.6 -718.3,468.5 -718.3,397.4 -752.3,349.5 				"/>
				<polygon class="st197" points="-718.3,301.8 -718.3,355.5 -752.3,349.5 				"/>
				<polygon class="st198" points="-718.3,397.4 -718.3,355.5 -752.3,349.5 				"/>
				<polygon class="st199" points="-873.8,116.4 -798.7,238.7 -798.7,116.4 				"/>
				<polygon class="st200" points="-718.3,180.2 -798.7,238.7 -798.7,116.4 -718.3,162.2 				"/>
				<polygon class="st104" points="-1136.7,390.8 -1198.5,285.1 -1086.8,275.6 				"/>
				<polygon class="st201" points="-718.3,162.2 -718.3,27.6 -784.4,43.7 -798.7,116.4 				"/>
				<polygon class="st202" points="-752.3,-107.6 -718.3,-90 -718.3,27.6 -784.4,43.7 				"/>
				<polygon class="st203" points="-788.8,-179.9 -752.3,-107.6 -866.9,-65.2 				"/>
				<polygon class="st204" points="-729.5,-241.9 -788.8,-179.9 -718.3,-197.5 -718.3,-241.9 				"/>
				<polygon class="st205" points="-752.3,-107.6 -718.3,-197.5 -718.3,-90 				"/>
				<polygon class="st206" points="-788.8,-179.9 -718.3,-197.5 -752.3,-107.6 				"/>
				<polygon class="st179" points="-975.1,-174.6 -866.9,-65.2 -975.1,-65.2 				"/>
				<polygon class="st207" points="-906.4,5.3 -866.9,-65.2 -975.1,-65.2 				"/>
				<polygon class="st208" points="-975.1,-174.6 -861.5,-241.9 -866.9,-65.2 				"/>
				<polygon class="st209" points="-1107.5,-194.1 -975.1,-174.6 -1080.5,-96.1 				"/>
				<polygon class="st210" points="-1339.1,-216.7 -1220.9,-174.6 -1342.3,-93 				"/>
				<polygon class="st211" points="-989.4,-241.9 -975.1,-174.6 -861.5,-241.9 				"/>
				<polygon class="st212" points="-1107.5,-194.1 -1089.4,-241.9 -989.4,-241.9 -975.1,-174.6 				"/>
				<polygon class="st213" points="-1220.9,-174.6 -1234.7,-241.9 -1182.2,-241.9 -1107.5,-194.1 				"/>
				<polygon class="st214" points="-1089.4,-241.9 -1107.5,-194.1 -1182.2,-241.9 				"/>
				<polygon class="st215" points="-1339.1,-216.7 -1285.7,-241.9 -1234.7,-241.9 -1220.9,-174.6 				"/>
				<polygon class="st216" points="-1435.1,-241.9 -1435.1,-221.5 -1339.1,-216.7 -1331.3,-241.9 				"/>
				<polygon class="st217" points="-1285.7,-241.9 -1331.3,-241.9 -1339.1,-216.7 				"/>
				<polygon class="st218" points="-1524.4,-208.1 -1474.5,-241.9 -1435.1,-241.9 -1435.1,-221.5 				"/>
				<polygon class="st219" points="-1638.4,-163.7 -1578.1,-241.9 -1474.5,-241.9 -1524.4,-208.1 				"/>
				<polygon class="st220" points="-1874.7,236.1 -1794.8,166.8 -1785.1,275.6 				"/>
				<polygon class="st221" points="-2303.4,127 -2263,160.5 -2336.3,286.1 				"/>
				<polygon class="st222" points="-2393.6,272.8 -2393.6,367.5 -2356.1,355.5 -2336.3,286.1 				"/>
				<polygon class="st223" points="-2393.6,148.7 -2393.6,272.8 -2336.3,286.1 -2303.4,127 				"/>
				<polygon class="st224" points="-2393.6,66 -2393.6,148.7 -2303.4,127 				"/>
				<polygon class="st225" points="-2393.6,38.1 -2393.6,66 -2303.4,127 -2323.2,19.6 				"/>
				<polygon class="st226" points="-2393.6,-32.4 -2393.6,38.1 -2323.2,19.6 				"/>
				<polygon class="st227" points="-2393.6,-93 -2362.7,-105.8 -2323.2,19.6 -2393.6,-32.4 				"/>
				<polygon class="st228" points="-2257,-93 -2323.2,19.6 -2362.7,-105.8 				"/>
				<polygon class="st229" points="-2393.6,-241.9 -2393.6,-214.3 -2348.1,-209.8 -2358.4,-241.9 				"/>
				<polygon class="st230" points="-2309.9,-241.9 -2348.1,-209.8 -2358.4,-241.9 				"/>
				<polygon class="st231" points="-2239.1,-241.9 -2263,-182.3 -2348.1,-209.8 -2309.9,-241.9 				"/>
				<polygon class="st41" points="-2056.8,-241.9 -2105.8,-153.1 -2101.7,-241.9 				"/>
				<polygon class="st232" points="-2239.1,-241.9 -2263,-182.3 -2105.8,-153.1 -2101.7,-241.9 				"/>
				<polygon class="st233" points="-1997.4,-241.9 -1989.8,-199.5 -2105.8,-153.1 -2056.8,-241.9 				"/>
				<polygon class="st234" points="-1932.3,-241.9 -1989.8,-199.5 -1997.4,-241.9 				"/>
				<polygon class="st235" points="-1908.8,-207.8 -1893,-241.9 -1932.3,-241.9 -1989.8,-199.5 				"/>
				<polygon class="st236" points="-1781.7,-241.9 -1813.7,-166.6 -1908.8,-207.8 -1813.7,-241.9 				"/>
				<polygon class="st236" points="-1893,-241.9 -1908.8,-207.8 -1813.7,-241.9 				"/>
				<polygon class="st237" points="-1638.4,-163.7 -1690.7,-241.9 -1781.7,-241.9 -1813.7,-166.6 				"/>
				<polygon class="st238" points="-1621.6,-241.9 -1638.4,-163.7 -1578.1,-241.9 				"/>
				<polygon class="st239" points="-1690.7,-241.9 -1621.6,-241.9 -1638.4,-163.7 				"/>
				<polygon class="st240" points="-1524.4,261.9 -1564.5,365.8 -1468.3,349.5 				"/>
				<polygon class="st241" points="-1657.3,255 -1690.8,377 -1775.9,339.2 				"/>
				<polygon class="st242" points="-1342.3,512.8 -1322.2,576.3 -1256.1,481.8 				"/>
				<polygon class="st14" points="-1644.7,575.8 -1679.5,700.4 -1690.8,700.4 -1753.6,586.6 				"/>
				<polygon class="st243" points="-1753.6,700.4 -1690.8,700.4 -1753.6,586.6 				"/>
				<polygon class="st244" points="-2022.5,355.5 -2001.9,469.8 -2105.8,512.8 				"/>
			</g>
		</g>
	</g>
	<path class="st0" d="M-1379-62L-1379-62L-1379-62z"/>
	<path class="st2" d="M-1295.6-7.5L-1295.6-7.5L-1295.6-7.5z"/>
	<path class="st4" d="M-1295.6-116.5L-1295.6-116.5L-1295.6-116.5z"/>
</g>
<g id="riflessi_bordi">
	<linearGradient id="SVGID_2_" gradientUnits="userSpaceOnUse" x1="178.6" y1="453.9" x2="518.4" y2="453.9">
		<stop  offset="0" style="stop-color:#FFFFFF;stop-opacity:0"/>
		<stop  offset="1" style="stop-color:#FFFFFF"/>
	</linearGradient>
	<line class="st245" x1="186.6" y1="326.7" x2="510.4" y2="581.1"/>
	<linearGradient id="SVGID_3_" gradientUnits="userSpaceOnUse" x1="537.7" y1="983.4" x2="537.7" y2="625">
		<stop  offset="0" style="stop-color:#FFFFFF;stop-opacity:0"/>
		<stop  offset="1" style="stop-color:#FFFFFF"/>
	</linearGradient>
	<line class="st246" x1="537.7" y1="975.4" x2="537.7" y2="633"/>
	<linearGradient id="SVGID_4_" gradientUnits="userSpaceOnUse" x1="898.1" y1="453.25" x2="559.3" y2="453.25">
		<stop  offset="0" style="stop-color:#FFFFFF;stop-opacity:0"/>
		<stop  offset="1" style="stop-color:#FFFFFF"/>
	</linearGradient>
	<line class="st247" x1="567.3" y1="579.8" x2="890.1" y2="326.7"/>
</g>
<g id="riflesso_vetro">
	<linearGradient id="SVGID_5_" gradientUnits="userSpaceOnUse" x1="203.2239" y1="341.4" x2="203.2239" y2="341.4">
		<stop  offset="0" style="stop-color:#FFFFFF;stop-opacity:0"/>
		<stop  offset="1" style="stop-color:#FFFFFF"/>
	</linearGradient>
	<path class="st248" d="M203.2,341.4"/>
	<g class="st249">
		<linearGradient id="SVGID_6_" gradientUnits="userSpaceOnUse" x1="130.8582" y1="574.5458" x2="314.6045" y2="482.6727">
			<stop  offset="2.744709e-02" style="stop-color:#FFFFFF;stop-opacity:0"/>
			<stop  offset="1" style="stop-color:#FFFFFF"/>
		</linearGradient>
		<polygon class="st250" points="510.4,581.1 204.5,341.4 357.5,632.5 		"/>
		<linearGradient id="SVGID_7_" gradientUnits="userSpaceOnUse" x1="299.0483" y1="910.9259" x2="482.7945" y2="819.0527">
			<stop  offset="2.744709e-02" style="stop-color:#FFFFFF;stop-opacity:0"/>
			<stop  offset="1" style="stop-color:#FFFFFF"/>
		</linearGradient>
		<polygon class="st251" points="384.7,684.3 537.7,975.4 537.7,633 		"/>
		<linearGradient id="SVGID_8_" gradientUnits="userSpaceOnUse" x1="122.1883" y1="557.2059" x2="305.9345" y2="465.3327">
			<stop  offset="2.744709e-02" style="stop-color:#FFFFFF;stop-opacity:0"/>
			<stop  offset="1" style="stop-color:#FFFFFF"/>
		</linearGradient>
		<polygon class="st252" points="149,360 149,702.5 302,651.1 		"/>
		<linearGradient id="SVGID_9_" gradientUnits="userSpaceOnUse" x1="290.3883" y1="893.6059" x2="474.1345" y2="801.7328">
			<stop  offset="2.744709e-02" style="stop-color:#FFFFFF;stop-opacity:0"/>
			<stop  offset="1" style="stop-color:#FFFFFF"/>
		</linearGradient>
		<polygon class="st253" points="176.3,754.4 482.1,994 329.2,702.9 		"/>
	</g>
	<g class="st249">
		<linearGradient id="SVGID_10_" gradientUnits="userSpaceOnUse" x1="721.7418" y1="861.4909" x2="563.4072" y2="781.3463">
			<stop  offset="2.744709e-02" style="stop-color:#FFFFFF;stop-opacity:0"/>
			<stop  offset="1" style="stop-color:#FFFFFF"/>
		</linearGradient>
		<polygon class="st254" points="593.9,994 899.8,754.4 746.8,702.9 		"/>
		<linearGradient id="SVGID_11_" gradientUnits="userSpaceOnUse" x1="712.6899" y1="879.3739" x2="554.3553" y2="799.2292">
			<stop  offset="2.744709e-02" style="stop-color:#FFFFFF;stop-opacity:0"/>
			<stop  offset="1" style="stop-color:#FFFFFF"/>
		</linearGradient>
		<polygon class="st255" points="538.4,633 538.4,975.4 691.3,684.3 		"/>
		<linearGradient id="SVGID_12_" gradientUnits="userSpaceOnUse" x1="882.3623" y1="544.1674" x2="724.0278" y2="464.0227">
			<stop  offset="2.744709e-02" style="stop-color:#FFFFFF;stop-opacity:0"/>
			<stop  offset="1" style="stop-color:#FFFFFF"/>
		</linearGradient>
		<polygon class="st256" points="871.5,341.4 565.6,581.1 718.6,632.5 		"/>
		<linearGradient id="SVGID_13_" gradientUnits="userSpaceOnUse" x1="891.4344" y1="526.2446" x2="733.0999" y2="446.0999">
			<stop  offset="2.744709e-02" style="stop-color:#FFFFFF;stop-opacity:0"/>
			<stop  offset="1" style="stop-color:#FFFFFF"/>
		</linearGradient>
		<polygon class="st257" points="774.1,651.1 927,702.5 927,360 		"/>
	</g>
</g>
</svg>
