<?xml version="1.0" encoding="utf-8"?>
<!-- Generator: Adobe Illustrator 24.1.0, SVG Export Plug-In . SVG Version: 6.00 Build 0)  -->
<svg version="1.1" id="Capa_1" xmlns="http://www.w3.org/2000/svg" xmlns:xlink="http://www.w3.org/1999/xlink" x="0px" y="0px"
	 viewBox="0 0 52 52" style="enable-background:new 0 0 52 52;" xml:space="preserve">
<style type="text/css">
	.st0{fill:#231F20;}
	.st1{fill:#FFFFFF;}
</style>
<circle class="st0" cx="26" cy="26" r="21.5"/>
<path class="st1" d="M26,2.8C13.2,2.8,2.8,13.2,2.8,26S13.2,49.2,26,49.2S49.2,38.8,49.2,26S38.8,2.8,26,2.8z M38.9,18.3L24.7,34.3
	c-0.4,0.4-0.8,0.6-1.3,0.6c-0.4,0-0.8-0.1-1.1-0.4l-8.9-7.1c-0.8-0.6-0.9-1.7-0.3-2.5c0.6-0.8,1.7-0.9,2.5-0.3l7.6,6.1l13.2-14.8
	c0.7-0.7,1.8-0.8,2.5-0.1C39.5,16.4,39.6,17.5,38.9,18.3z"/>
</svg>
