<?xml version="1.0" encoding="utf-8"?>
<!-- Generator: Adobe Illustrator 24.1.0, SVG Export Plug-In . SVG Version: 6.00 Build 0)  -->
<svg version="1.1" id="Capa_1" xmlns="http://www.w3.org/2000/svg" xmlns:xlink="http://www.w3.org/1999/xlink" x="0px" y="0px"
	 viewBox="0 0 512 512" style="enable-background:new 0 0 512 512;" xml:space="preserve">
<g>
	<g>
		<path d="M392.4,106h-244c-7.6,0-13.7-6.1-13.7-13.7v-6.8c0-7.7-6.2-14-14-14H47.4C32,71.5,19.5,84,19.5,99.4v234.8L55.3,160
			c1.3-6.4,6.9-10.9,13.4-10.9h351.6v-15.2C420.3,118.5,407.8,106,392.4,106z"/>
	</g>
</g>
<path d="M464.6,176.5H79.9L26,438.4c-1.8,8.6,4.8,16.6,13.6,16.6h400.3c14.2,0,26.2-10.7,27.7-24.8l24.6-222.8
	C494.2,190.9,481.2,176.5,464.6,176.5z M226.3,267.3c4.4-29.8,32.3-54,62.1-54c29.8,0,50.4,24.2,46,54c-4.4,29.8-32.3,54-62.1,54
	S221.8,297.1,226.3,267.3z M348.8,412.3c-0.5,3.3-3.6,6-6.9,6H173.8c-3.3,0-5.6-2.7-5.1-6c3.1-20.9,14.1-40.6,31.1-55.6
	c17-15,37.9-23.3,58.7-23.3h24c20.8,0,39.2,8.3,51.8,23.3C346.7,371.6,351.9,391.4,348.8,412.3z"/>
</svg>
