<svg id="Capa_1" enable-background="new 0 0 510 510" height="512" viewBox="0 0 510 510" width="512" xmlns="http://www.w3.org/2000/svg"><path d="m505.611 150.032-75.841-75.831c-5.838-5.859-15.443-5.884-21.312.09l-44.014 44.784c-18.43-9.625-41.763-6.714-57.221 8.745-15.889 15.889-18.53 40.102-7.894 58.752-25.995 7.677-45.673 6.073-53.689 6.073-11.586 0-22.322 6.994-26.945 17.7-58.503 135.558-73.132 168.978-77.069 178.748-1.17 2.903-4.69 4.044-7.331 2.365-17.717-11.265-28.473-24.411-31.629-38.958-4.829-22.26 8.402-49.679 36.298-75.224 21.844-20.003 23.236-40.642 20.558-54.435-7.393-38.069-55.546-74.734-139.253-106.034-7.766-2.904-16.411 1.037-19.314 8.801-2.903 7.764 1.038 16.411 8.801 19.314 70.259 26.271 115.231 57.538 120.3 83.64.66 3.396 2.666 13.729-11.363 26.576-36.509 33.432-52.619 70.268-45.362 103.724 9.076 41.835 51.215 65.882 91.706 79.531 8.636 2.911 18.61 2.081 25.542-1.004l178.337-76.972c11.096-4.783 18.04-15.709 17.69-27.825-.47-15.859.11-33.048 5.943-52.779 18.627 10.658 42.884 8.035 58.792-7.874 15.358-15.358 18.34-38.491 8.915-56.861l45.165-43.644c6.001-5.774 6.144-15.427.19-21.402zm-75.491 100.685c-7.354 7.344-19.311 7.344-26.664 0-11.235-11.235-68.881-68.881-75.011-75.011-7.344-7.354-7.344-19.31 0-26.664 7.202-7.202 19.143-7.471 26.654 0 8.379 8.379 66.667 66.667 75.021 75.021 7.415 7.415 7.254 19.4 0 26.654zm-230.556 150.102 67.767-67.767c15.569 7.092 34.885 4.487 48.086-8.715 16.699-16.699 16.699-43.884 0-60.593-16.831-16.81-43.921-16.671-60.593 0-12.977 12.977-15.879 32.278-8.695 48.066l-67.787 67.787 67.727-156.916c10.886.44 40.122 1.391 75.091-11.817l47.116 47.116c-11.156 29.286-12.277 54.17-11.687 75.071zm76.481-115.843c5.008-5.007 13.109-5.031 18.14 0 5.003 5.003 5.003 13.137 0 18.14-5.029 5.029-13.129 5.01-18.14 0-5.012-5.013-4.993-13.147 0-18.14zm164.68-92.761-53.499-53.499 32.028-32.588 54.33 54.33z"/></svg>